<?xml version="1.0" encoding="utf-8"?>
<!-- Generator: Adobe Illustrator 21.1.0, SVG Export Plug-In . SVG Version: 6.00 Build 0)  -->
<svg version="1.1" id="Layer_1" xmlns="http://www.w3.org/2000/svg" xmlns:xlink="http://www.w3.org/1999/xlink" x="0px" y="0px"
	 viewBox="0 0 1000 188" style="enable-background:new 0 0 1000 188;" xml:space="preserve">
<style type="text/css">
	.st0{fill:#222222;}
	.st1{fill:#00AFF0;}
	.st2{clip-path:url(#SVGID_2_);fill:#222222;}
</style>
<g>
	<rect x="28.8" y="115.1" transform="matrix(0.7071 -0.7071 0.7071 0.7071 -80.2003 71.5422)" class="st0" width="35" height="35"/>
	<rect x="57.3" y="86.7" transform="matrix(0.7071 -0.7071 0.7071 0.7071 -51.7787 83.412)" class="st0" width="35" height="35"/>
	
		<rect x="85.7" y="115.2" transform="matrix(0.7071 -0.7071 0.7071 0.7071 -63.6374 111.8923)" class="st0" width="35.1" height="35.1"/>
	<rect x="85.8" y="58.2" transform="matrix(0.7071 -0.7071 0.7071 0.7071 -23.2688 95.213)" class="st0" width="35" height="35"/>
	
		<rect x="114.2" y="86.7" transform="matrix(0.7071 -0.7071 0.7071 0.7071 -35.1456 123.7006)" class="st0" width="35.1" height="35.1"/>
	
		<rect x="142.8" y="115.2" transform="matrix(0.7071 -0.7071 0.7071 0.7071 -46.8796 152.2136)" class="st0" width="35" height="35"/>
	<rect x="114.3" y="29.7" transform="matrix(0.7071 -0.7071 0.7071 0.7071 5.239 107.0054)" class="st0" width="35" height="35"/>
	
		<rect x="199.7" y="115.2" transform="matrix(0.7071 -0.7071 0.7071 0.7071 -30.2479 192.5173)" class="st0" width="35.1" height="35.1"/>
	
		<rect x="199.7" y="58.2" transform="matrix(0.7071 -0.7071 0.7071 0.7071 10.0504 175.8031)" class="st1" width="35.1" height="35.1"/>
	
		<rect x="171.2" y="86.7" transform="matrix(0.7071 -0.7071 0.7071 0.7071 -18.4348 163.9368)" class="st0" width="35" height="35"/>
	<rect x="142.8" y="58.2" transform="matrix(0.7071 -0.7071 0.7071 0.7071 -6.5633 135.5148)" class="st0" width="35" height="35"/>
	<rect x="228.3" y="86.7" transform="matrix(0.7071 -0.7071 0.7071 0.7071 -1.6689 204.3152)" class="st1" width="35" height="35"/>
	
		<rect x="256.7" y="115.3" transform="matrix(0.7071 -0.7071 0.7071 0.7071 -13.5757 232.8055)" class="st1" width="35" height="35"/>
</g>
<g>
	<g>
		<g>
			<defs>
				<rect id="SVGID_1_" x="21.5" y="22.5" width="956.9" height="135.1"/>
			</defs>
			<clipPath id="SVGID_2_">
				<use xlink:href="#SVGID_1_"  style="overflow:visible;"/>
			</clipPath>
			<path class="st2" d="M927.3,59.4v71.1h51.2v-11.3h-39.2v-19h34.1V89.5h-34.1V70.7h38V59.4H927.3z M867.6,112.3
				c-4.9-4.8-7.3-10.9-7.3-18.1s2.4-13.2,7.3-17.8c4.9-4.6,10.9-7,18.1-7c4.1,0,7.6,0.6,10.6,1.9s6.2,3.6,9.6,6.8l7.6-8.3
				c-7.4-8.1-16.6-12.2-27.6-12.2s-20.1,3.5-27.4,10.6c-7.2,7.1-10.8,15.9-10.8,26.5s3.5,19.3,10.6,26.3c7.1,6.9,16,10.4,26.8,10.4
				s19.9-4.2,27.4-12.5l-7.7-7.9c-3.3,3.1-6.4,5.3-9.4,6.7c-3,1.4-6.5,2.1-10.7,2.1C878.2,119.6,872.5,117.2,867.6,112.3
				 M820.6,130.5h12V59.4h-12V130.5z"/>
		</g>
	</g>
</g>
<path class="st0" d="M807.6,70.4v-11h-55.1v11H774v60.1h12V70.4H807.6z M727.4,112.5l-41.3-53.1h-12v71.1h12V78.6l40.3,51.9h13V59.4
	h-12V112.5z M607.6,59.4v71.1h51.2v-11.3h-39.2v-19h34.1V89.5h-34.1V70.7h38V59.4H607.6z M519.6,74.9l24.7,49.3h6.7l24.8-49.3v55.6
	h12V59.4h-18.6L547.8,104l-21.5-44.7h-18.7v71.1h12V74.9z M441,59.4v71.1h51.2v-11.3H453v-19h34.1V89.5H453V70.7h38V59.4H441z
	 M427.9,130.5v-11.4h-32.5V59.4h-12v71.1H427.9z M316.9,59.4v71.1h51.2v-11.3h-39.2v-19H363V89.5h-34.1V70.7h38V59.4H316.9z"/>
</svg>
